<svg width="260" height="260" viewBox="0 0 260 260" fill="none" xmlns="http://www.w3.org/2000/svg">
<g filter="url(#filter0_bd_4_2)">
<path fill-rule="evenodd" clip-rule="evenodd" d="M230 130C230 185.228 185.228 230 130 230C74.7715 230 30 185.228 30 130C30 74.7715 74.7715 30 130 30C185.228 30 230 74.7715 230 130ZM130 40C179.706 40 220 80.2944 220 130C220 179.706 179.706 220 130 220C80.2944 220 40 179.706 40 130L57.1885 182.901L102.188 215.595L57.1885 182.901L40 130C40 80.2944 80.2944 40 130 40Z" fill="white"/>
</g>
<defs>
<filter id="filter0_bd_4_2" x="0" y="0" width="260" height="260" filterUnits="userSpaceOnUse" color-interpolation-filters="sRGB">
<feFlood flood-opacity="0" result="BackgroundImageFix"/>
<feGaussianBlur in="BackgroundImageFix" stdDeviation="15"/>
<feComposite in2="SourceAlpha" operator="in" result="effect1_backgroundBlur_4_2"/>
<feColorMatrix in="SourceAlpha" type="matrix" values="0 0 0 0 0 0 0 0 0 0 0 0 0 0 0 0 0 0 127 0" result="hardAlpha"/>
<feOffset/>
<feGaussianBlur stdDeviation="15"/>
<feComposite in2="hardAlpha" operator="out"/>
<feColorMatrix type="matrix" values="0 0 0 0 0.278431 0 0 0 0 0.878431 0 0 0 0 0.0627451 0 0 0 1 0"/>
<feBlend mode="normal" in2="effect1_backgroundBlur_4_2" result="effect2_dropShadow_4_2"/>
<feBlend mode="normal" in="SourceGraphic" in2="effect2_dropShadow_4_2" result="shape"/>
</filter>
</defs>
</svg>
